<mxfile host="app.diagrams.net" modified="2022-02-22T08:25:49.172Z" agent="5.0 (Macintosh; Intel Mac OS X 10_15_7) AppleWebKit/605.1.15 (KHTML, like Gecko) Version/15.2 Safari/605.1.15" etag="i86PrVrfvqybPvDy5Ni7" version="16.6.2" type="github" pages="2">
  <diagram name="Page-1" id="74b105a0-9070-1c63-61bc-23e55f88626e">
    <mxGraphModel dx="2045" dy="1108" grid="1" gridSize="10" guides="1" tooltips="1" connect="1" arrows="1" fold="1" page="1" pageScale="1.5" pageWidth="1169" pageHeight="826" background="#283618" math="0" shadow="0">
      <root>
        <mxCell id="0" style=";html=1;" />
        <mxCell id="1" style=";html=1;" parent="0" />
        <mxCell id="10b056a9c633e61c-30" value="Final Project SPICED Academy&lt;br&gt;Lars Kruse" style="text;strokeColor=none;fillColor=none;html=1;fontSize=24;fontStyle=1;verticalAlign=middle;align=center;fontColor=#FEFAE0;" parent="1" vertex="1">
          <mxGeometry x="80" y="40" width="1590" height="40" as="geometry" />
        </mxCell>
        <mxCell id="zrJcdOzRsB4FpwYGA8S4-10" value="Job Candidate" style="shape=umlActor;verticalLabelPosition=bottom;verticalAlign=top;html=1;outlineConnect=0;fillColor=#BC6C25;strokeColor=#DDA15E;fontColor=#FEFAE0;" vertex="1" parent="1">
          <mxGeometry x="80" y="120" width="30" height="80" as="geometry" />
        </mxCell>
        <mxCell id="zrJcdOzRsB4FpwYGA8S4-18" value="" style="shape=cylinder3;whiteSpace=wrap;html=1;boundedLbl=1;backgroundOutline=1;size=15;fontColor=#FEFAE0;fillColor=#BC6C25;strokeColor=#DDA15E;" vertex="1" parent="1">
          <mxGeometry x="400" y="120" width="60" height="80" as="geometry" />
        </mxCell>
        <mxCell id="zrJcdOzRsB4FpwYGA8S4-19" value="" style="endArrow=classic;html=1;rounded=0;fontColor=#FEFAE0;exitX=1;exitY=0.5;exitDx=0;exitDy=0;labelBackgroundColor=#283618;strokeColor=#DDA15E;" edge="1" parent="1" source="zrJcdOzRsB4FpwYGA8S4-23" target="zrJcdOzRsB4FpwYGA8S4-18">
          <mxGeometry width="50" height="50" relative="1" as="geometry">
            <mxPoint x="330" y="250" as="sourcePoint" />
            <mxPoint x="900" y="320" as="targetPoint" />
          </mxGeometry>
        </mxCell>
        <mxCell id="zrJcdOzRsB4FpwYGA8S4-20" value="Raw data clip" style="text;html=1;strokeColor=none;fillColor=none;align=center;verticalAlign=middle;whiteSpace=wrap;rounded=0;fontColor=#FEFAE0;" vertex="1" parent="1">
          <mxGeometry x="400" y="200" width="60" height="30" as="geometry" />
        </mxCell>
        <mxCell id="zrJcdOzRsB4FpwYGA8S4-22" value="" style="endArrow=classic;html=1;rounded=0;fontColor=#FEFAE0;entryX=0;entryY=0.5;entryDx=0;entryDy=0;labelBackgroundColor=#283618;strokeColor=#DDA15E;" edge="1" parent="1" target="zrJcdOzRsB4FpwYGA8S4-23">
          <mxGeometry width="50" height="50" relative="1" as="geometry">
            <mxPoint x="120" y="160" as="sourcePoint" />
            <mxPoint x="190" y="170" as="targetPoint" />
          </mxGeometry>
        </mxCell>
        <mxCell id="zrJcdOzRsB4FpwYGA8S4-23" value="" style="shape=process;whiteSpace=wrap;html=1;backgroundOutline=1;fontColor=#FEFAE0;fillColor=#BC6C25;strokeColor=#DDA15E;" vertex="1" parent="1">
          <mxGeometry x="200" y="130" width="120" height="60" as="geometry" />
        </mxCell>
        <mxCell id="zrJcdOzRsB4FpwYGA8S4-24" value="Recording a 10 minute clip&amp;nbsp;&lt;br&gt;(focus: face)" style="text;html=1;strokeColor=none;fillColor=none;align=center;verticalAlign=middle;whiteSpace=wrap;rounded=0;fontColor=#FEFAE0;" vertex="1" parent="1">
          <mxGeometry x="210" y="145" width="100" height="30" as="geometry" />
        </mxCell>
        <mxCell id="zrJcdOzRsB4FpwYGA8S4-25" value="MacBook Pro" style="text;html=1;strokeColor=none;fillColor=none;align=center;verticalAlign=middle;whiteSpace=wrap;rounded=0;fontColor=#FEFAE0;" vertex="1" parent="1">
          <mxGeometry x="210" y="190" width="100" height="30" as="geometry" />
        </mxCell>
        <mxCell id="zrJcdOzRsB4FpwYGA8S4-26" value="" style="shape=process;whiteSpace=wrap;html=1;backgroundOutline=1;fontColor=#FEFAE0;fillColor=#BC6C25;strokeColor=#DDA15E;" vertex="1" parent="1">
          <mxGeometry x="560" y="130" width="120" height="60" as="geometry" />
        </mxCell>
        <mxCell id="zrJcdOzRsB4FpwYGA8S4-27" value="Splitting the clip &lt;br&gt;into frames&lt;br&gt;(interval 1 sec.)" style="text;html=1;strokeColor=none;fillColor=none;align=center;verticalAlign=middle;whiteSpace=wrap;rounded=0;fontColor=#FEFAE0;" vertex="1" parent="1">
          <mxGeometry x="560" y="134" width="120" height="50" as="geometry" />
        </mxCell>
        <mxCell id="zrJcdOzRsB4FpwYGA8S4-28" value="" style="endArrow=classic;html=1;rounded=0;fontColor=#FEFAE0;exitX=1;exitY=0.5;exitDx=0;exitDy=0;exitPerimeter=0;entryX=0;entryY=0.5;entryDx=0;entryDy=0;labelBackgroundColor=#283618;strokeColor=#DDA15E;" edge="1" parent="1" source="zrJcdOzRsB4FpwYGA8S4-18" target="zrJcdOzRsB4FpwYGA8S4-27">
          <mxGeometry width="50" height="50" relative="1" as="geometry">
            <mxPoint x="850" y="370" as="sourcePoint" />
            <mxPoint x="900" y="320" as="targetPoint" />
          </mxGeometry>
        </mxCell>
        <mxCell id="zrJcdOzRsB4FpwYGA8S4-29" value="" style="shape=cylinder3;whiteSpace=wrap;html=1;boundedLbl=1;backgroundOutline=1;size=15;fontColor=#FEFAE0;fillColor=#BC6C25;strokeColor=#DDA15E;" vertex="1" parent="1">
          <mxGeometry x="760" y="120" width="60" height="80" as="geometry" />
        </mxCell>
        <mxCell id="zrJcdOzRsB4FpwYGA8S4-30" value="" style="endArrow=classic;html=1;rounded=0;fontColor=#FEFAE0;exitX=1;exitY=0.5;exitDx=0;exitDy=0;entryX=0;entryY=0.5;entryDx=0;entryDy=0;entryPerimeter=0;labelBackgroundColor=#283618;strokeColor=#DDA15E;" edge="1" parent="1" source="zrJcdOzRsB4FpwYGA8S4-27" target="zrJcdOzRsB4FpwYGA8S4-29">
          <mxGeometry width="50" height="50" relative="1" as="geometry">
            <mxPoint x="850" y="370" as="sourcePoint" />
            <mxPoint x="900" y="320" as="targetPoint" />
          </mxGeometry>
        </mxCell>
        <mxCell id="vXQWUet9Y1mkN0swgNJU-1" value="e. g. Vilmora Video Editor (Freeware)" style="text;html=1;strokeColor=none;fillColor=none;align=center;verticalAlign=middle;whiteSpace=wrap;rounded=0;sketch=0;fontColor=#FEFAE0;" vertex="1" parent="1">
          <mxGeometry x="555" y="184" width="130" height="50" as="geometry" />
        </mxCell>
        <mxCell id="vXQWUet9Y1mkN0swgNJU-2" value="image dataset of 600 images" style="text;html=1;strokeColor=none;fillColor=none;align=center;verticalAlign=middle;whiteSpace=wrap;rounded=0;sketch=0;fontColor=#FEFAE0;" vertex="1" parent="1">
          <mxGeometry x="750" y="210" width="90" height="30" as="geometry" />
        </mxCell>
        <mxCell id="vXQWUet9Y1mkN0swgNJU-3" value="" style="shape=cylinder3;whiteSpace=wrap;html=1;boundedLbl=1;backgroundOutline=1;size=15;rounded=0;sketch=0;fontColor=#FEFAE0;strokeColor=#DDA15E;fillColor=#BC6C25;" vertex="1" parent="1">
          <mxGeometry x="60" y="360" width="60" height="80" as="geometry" />
        </mxCell>
        <mxCell id="vXQWUet9Y1mkN0swgNJU-4" value="Dataset of ca. 3 mn facial images (Source: Columbia Business School, NY, USA)" style="text;html=1;strokeColor=none;fillColor=none;align=center;verticalAlign=middle;whiteSpace=wrap;rounded=0;sketch=0;fontColor=#FEFAE0;" vertex="1" parent="1">
          <mxGeometry x="30" y="460" width="120" height="40" as="geometry" />
        </mxCell>
      </root>
    </mxGraphModel>
  </diagram>
  <diagram id="GEsbwKyP6mmxtWgQzgE0" name="Page-2">
    <mxGraphModel dx="2045" dy="1108" grid="1" gridSize="10" guides="1" tooltips="1" connect="1" arrows="1" fold="1" page="1" pageScale="1" pageWidth="827" pageHeight="1169" math="0" shadow="0">
      <root>
        <mxCell id="JvjT2bo-om8DhKJhtweY-0" />
        <mxCell id="JvjT2bo-om8DhKJhtweY-1" parent="JvjT2bo-om8DhKJhtweY-0" />
      </root>
    </mxGraphModel>
  </diagram>
</mxfile>
